<svg width="20" height="20" viewBox="0 0 20 20" fill="none" xmlns="http://www.w3.org/2000/svg">
<path d="M4.16699 3H15.833C16.1424 3 16.4394 3.123 16.6582 3.3418C16.877 3.56059 17 3.85757 17 4.16699V15.833C17 16.1424 16.877 16.4394 16.6582 16.6582C16.4394 16.877 16.1424 17 15.833 17H4.16699C3.85757 17 3.56059 16.877 3.3418 16.6582C3.123 16.4394 3 16.1424 3 15.833V4.16699C3 3.85757 3.123 3.56059 3.3418 3.3418C3.56059 3.123 3.85757 3 4.16699 3ZM4.08301 15.917H7.3916V7.94141H4.08301V15.917ZM12.7002 7.7832C12.2227 7.7832 11.7125 7.93823 11.2666 8.20801V7.94141H7.94141V15.917H11.2666V11.3086C11.2666 10.9385 11.564 10.6417 11.9248 10.6416C12.1016 10.6416 12.2715 10.7119 12.3965 10.8369C12.5215 10.9619 12.5918 11.1318 12.5918 11.3086V15.917H15.917V11C15.917 10.1469 15.5778 9.32882 14.9746 8.72559C14.3714 8.12239 13.5532 7.78325 12.7002 7.7832ZM5.7334 3.8252C5.22728 3.8252 4.74167 4.02591 4.38379 4.38379C4.02591 4.74167 3.8252 5.22728 3.8252 5.7334C3.82523 6.78837 4.68615 7.63379 5.7334 7.63379C6.23729 7.63377 6.72084 7.43345 7.07715 7.07715C7.43345 6.72084 7.63377 6.23729 7.63379 5.7334C7.63379 4.68615 6.78837 3.82523 5.7334 3.8252Z" fill="#656565" stroke="#656565"/>
</svg>
