<svg width="773" height="241" viewBox="0 0 773 241" fill="none" xmlns="http://www.w3.org/2000/svg">
<path d="M0.5 177.874V133.874L100.5 185.374C100.5 185.374 99.1598 187.659 98 188.874C96.6518 190.286 94 191.874 94 191.874L57.5 210.374L0.5 177.874Z" fill="#12315D" stroke="#12315D"/>
<path d="M179 126.874C178.327 126.54 152.5 110.374 152.5 110.374V163.374L116.5 184.374C116.5 184.374 115.122 187.595 114 189.374C113.186 190.664 113.022 191.242 112 192.374C110.704 193.808 110.5 194.374 108.5 195.874C106.5 197.374 70 217.374 70 217.374L110.5 240.374L181.5 199.874V130.374C181.5 129.874 181.422 129.56 181 128.874C180.488 128.043 179.673 127.208 179 126.874Z" fill="#1E7D8B" stroke="#1E7D8B"/>
<path d="M219.5 62.874L154.5 26.374L116.5 48.374C116.5 48.374 113.741 50.2102 112.5 51.874C111.456 53.274 110.5 55.374 110.5 55.874V70.374C110.5 70.374 187 118.374 188.5 119.874C190 121.374 190.691 122.423 191.5 124.374C192.117 125.861 192.5 127.874 192.5 128.374V193.874L219.5 178.374V62.874Z" fill="#525252" stroke="#525252"/>
<path d="M61.5 96.874V116.374L43 106.374C43 106.374 41.5 105.874 41 105.374C40.5 104.874 39.5 102.874 39.5 102.374V46.374C39.5 45.874 40 44.374 40 44.374C40 44.374 41 42.374 41.5 41.874C42 41.374 110.5 0.874023 110.5 0.874023L144.5 20.874L113 37.874C113 37.874 107.142 41.4811 104.5 44.874C101.491 48.7379 100 52.374 99.5 56.374C99 60.374 100.5 71.874 99.5 72.874C98.5 73.874 65.5 92.374 65.5 92.374C65.5 92.374 63.3461 92.8741 62.5 93.874C61.7023 94.8168 61.5 96.874 61.5 96.874Z" fill="#7C7C7C" stroke="#7C7C7C"/>
<path d="M28.5 48.874L0.5 65.874V123.874L61.5 154.374V130.374C61.5 130.374 61 127.874 60.5 127.374C60 126.874 58.5 125.874 58 125.374C57.5 124.874 36.5 114.874 36.5 114.874C36.5 114.874 31 112.374 30 109.374C29 106.374 29 105.874 28.5 103.374C28 100.874 28.5 48.874 28.5 48.874Z" fill="#7C7C7C" stroke="#7C7C7C"/>
<path d="M219.5 178.374V126.874L192.5 141.374V193.874L219.5 178.374Z" fill="#1E7D8B" stroke="#1E7D8B"/>
<path d="M179 126.874C178.327 126.54 152.5 110.374 152.5 110.374V162.374L181.5 145.374V130.374C181.5 129.874 181.422 129.56 181 128.874C180.488 128.043 179.673 127.208 179 126.874Z" fill="#525252" stroke="#525252"/>
<path d="M113 37.874L110.5 39.374V0.874023L144.5 20.874L113 37.874Z" fill="#656565" stroke="#656565"/>
<path d="M108.5 195.874C106.5 197.374 70 217.374 70 217.374L108.5 239.238V195.874Z" fill="#17626E" stroke="#17626E"/>
<path d="M299.476 184.913C293.405 184.913 287.891 183.759 282.932 181.45C277.973 179.142 273.784 176.064 270.364 172.217C266.944 168.284 264.507 163.966 263.054 159.264L272.287 155.801C274.51 162.299 277.973 167.258 282.675 170.678C287.378 174.012 292.978 175.679 299.476 175.679C303.58 175.679 307.171 175.038 310.249 173.755C313.412 172.388 315.849 170.507 317.559 168.113C319.269 165.719 320.124 162.94 320.124 159.777C320.124 155.074 318.841 151.441 316.276 148.876C313.711 146.311 310.035 144.344 305.247 142.976L288.062 137.846C281.307 135.88 276.092 132.588 272.416 127.971C268.825 123.354 267.029 118.096 267.029 112.197C267.029 107.153 268.269 102.707 270.748 98.8592C273.228 94.9263 276.605 91.8484 280.88 89.6254C285.24 87.4025 290.156 86.291 295.628 86.291C301.357 86.291 306.487 87.3597 311.018 89.4972C315.635 91.5491 319.525 94.2851 322.688 97.705C325.852 101.125 328.118 104.93 329.486 109.119L320.508 112.71C318.456 107.067 315.25 102.792 310.89 99.8852C306.615 96.9782 301.57 95.5248 295.757 95.5248C292.08 95.5248 288.831 96.166 286.01 97.4485C283.274 98.731 281.136 100.569 279.597 102.963C278.058 105.357 277.289 108.178 277.289 111.427C277.289 115.36 278.529 118.908 281.008 122.072C283.488 125.15 287.292 127.458 292.422 128.997L307.555 133.486C315.079 135.709 320.765 138.915 324.612 143.104C328.46 147.294 330.383 152.552 330.383 158.879C330.383 164.009 329.058 168.54 326.408 172.473C323.843 176.32 320.209 179.356 315.507 181.579C310.89 183.802 305.546 184.913 299.476 184.913ZM348.785 183.374V114.634H358.403V183.374H348.785ZM348.785 101.937V87.8299H358.403V101.937H348.785ZM377.706 153.492V144.515H422.593V153.492H377.706Z" fill="#7C7C7C"/>
<path d="M433.885 183.374V169.652L480.182 103.22H436.578V87.8299H502.369V101.552L456.2 167.984H503.651V183.374H433.885ZM514.589 183.374V87.8299H578.071V103.22H532.031V127.715H575.507V143.104H532.031V167.984H578.071V183.374H514.589ZM590.861 183.374V87.8299H626.386C632.883 87.8299 638.612 89.0269 643.571 91.4209C648.615 93.7293 652.548 97.1492 655.369 101.681C658.191 106.127 659.602 111.556 659.602 117.968C659.602 124.551 658.02 130.151 654.856 134.768C651.779 139.385 647.589 142.805 642.288 145.028L664.218 183.374H644.468L620.999 141.437L632.285 148.106H608.303V183.374H590.861ZM608.303 132.716H626.642C629.806 132.716 632.541 132.118 634.85 130.921C637.158 129.638 638.954 127.886 640.236 125.663C641.519 123.44 642.16 120.875 642.16 117.968C642.16 114.976 641.519 112.411 640.236 110.273C638.954 108.05 637.158 106.34 634.85 105.143C632.541 103.861 629.806 103.22 626.642 103.22H608.303V132.716ZM722.716 184.913C715.705 184.913 709.165 183.673 703.094 181.194C697.024 178.714 691.723 175.252 687.192 170.806C682.66 166.36 679.112 161.145 676.547 155.16C674.068 149.089 672.828 142.549 672.828 135.538C672.828 128.442 674.068 121.901 676.547 115.916C679.027 109.931 682.532 104.716 687.063 100.27C691.595 95.824 696.896 92.4041 702.966 90.0102C709.036 87.5307 715.62 86.291 722.716 86.291C729.812 86.291 736.396 87.5307 742.466 90.0102C748.537 92.4896 753.837 95.9523 758.369 100.398C762.9 104.759 766.406 109.931 768.885 115.916C771.45 121.901 772.733 128.442 772.733 135.538C772.733 142.549 771.45 149.089 768.885 155.16C766.32 161.145 762.772 166.36 758.241 170.806C753.709 175.252 748.408 178.714 742.338 181.194C736.353 183.673 729.812 184.913 722.716 184.913ZM722.716 169.01C727.419 169.01 731.736 168.198 735.669 166.574C739.602 164.864 743.022 162.512 745.929 159.52C748.921 156.528 751.187 152.979 752.726 148.876C754.35 144.772 755.163 140.326 755.163 135.538C755.163 130.75 754.35 126.347 752.726 122.328C751.187 118.225 748.921 114.676 745.929 111.684C743.022 108.606 739.602 106.255 735.669 104.63C731.736 103.006 727.419 102.194 722.716 102.194C718.099 102.194 713.824 103.006 709.891 104.63C705.959 106.255 702.496 108.606 699.503 111.684C696.596 114.676 694.331 118.225 692.706 122.328C691.082 126.347 690.27 130.75 690.27 135.538C690.27 140.326 691.082 144.772 692.706 148.876C694.331 152.979 696.596 156.528 699.503 159.52C702.496 162.512 705.959 164.864 709.891 166.574C713.824 168.198 718.099 169.01 722.716 169.01Z" fill="#12315D"/>
</svg>
