<svg width="220" height="241" viewBox="0 0 220 241" fill="none" xmlns="http://www.w3.org/2000/svg">
<path d="M0.5 177.874V133.874L100.5 185.374C100.5 185.374 99.1598 187.659 98 188.874C96.6518 190.286 94 191.874 94 191.874L57.5 210.374L0.5 177.874Z" fill="#12315D" stroke="#12315D"/>
<path d="M179 126.874C178.327 126.54 152.5 110.374 152.5 110.374V163.374L116.5 184.374C116.5 184.374 115.122 187.595 114 189.374C113.186 190.664 113.022 191.242 112 192.374C110.704 193.808 110.5 194.374 108.5 195.874C106.5 197.374 70 217.374 70 217.374L110.5 240.374L181.5 199.874V130.374C181.5 129.874 181.422 129.56 181 128.874C180.488 128.043 179.673 127.208 179 126.874Z" fill="#1E7D8B" stroke="#1E7D8B"/>
<path d="M219.5 62.874L154.5 26.374L116.5 48.374C116.5 48.374 113.741 50.2102 112.5 51.874C111.456 53.274 110.5 55.374 110.5 55.874V70.374C110.5 70.374 187 118.374 188.5 119.874C190 121.374 190.691 122.423 191.5 124.374C192.117 125.861 192.5 127.874 192.5 128.374V193.874L219.5 178.374V62.874Z" fill="#525252" stroke="#525252"/>
<path d="M61.5 96.874V116.374L43 106.374C43 106.374 41.5 105.874 41 105.374C40.5 104.874 39.5 102.874 39.5 102.374V46.374C39.5 45.874 40 44.374 40 44.374C40 44.374 41 42.374 41.5 41.874C42 41.374 110.5 0.874023 110.5 0.874023L144.5 20.874L113 37.874C113 37.874 107.142 41.4811 104.5 44.874C101.491 48.7379 100 52.374 99.5 56.374C99 60.374 100.5 71.874 99.5 72.874C98.5 73.874 65.5 92.374 65.5 92.374C65.5 92.374 63.3461 92.8741 62.5 93.874C61.7023 94.8168 61.5 96.874 61.5 96.874Z" fill="#7C7C7C" stroke="#7C7C7C"/>
<path d="M28.5 48.874L0.5 65.874V123.874L61.5 154.374V130.374C61.5 130.374 61 127.874 60.5 127.374C60 126.874 58.5 125.874 58 125.374C57.5 124.874 36.5 114.874 36.5 114.874C36.5 114.874 31 112.374 30 109.374C29 106.374 29 105.874 28.5 103.374C28 100.874 28.5 48.874 28.5 48.874Z" fill="#7C7C7C" stroke="#7C7C7C"/>
<path d="M219.5 178.374V126.874L192.5 141.374V193.874L219.5 178.374Z" fill="#1E7D8B" stroke="#1E7D8B"/>
<path d="M179 126.874C178.327 126.54 152.5 110.374 152.5 110.374V162.374L181.5 145.374V130.374C181.5 129.874 181.422 129.56 181 128.874C180.488 128.043 179.673 127.208 179 126.874Z" fill="#525252" stroke="#525252"/>
<path d="M113 37.874L110.5 39.374V0.874023L144.5 20.874L113 37.874Z" fill="#656565" stroke="#656565"/>
<path d="M108.5 195.874C106.5 197.374 70 217.374 70 217.374L108.5 239.238V195.874Z" fill="#17626E" stroke="#17626E"/>
</svg>
